<?xml version="1.0" encoding="UTF-8"?><svg xmlns="http://www.w3.org/2000/svg" viewBox="0 0 1035.12 1035.12"><defs><style>.d{fill:#ceb2e3;}</style></defs><g id="a"/><g id="b"><g id="c"><g><path class="d" d="M517.56,0C231.72,0,0,231.72,0,517.56s231.72,517.56,517.56,517.56,517.56-231.72,517.56-517.56S803.4,0,517.56,0Zm.61,958.71c-243.64,0-441.15-197.51-441.15-441.15S274.53,76.41,518.17,76.41s441.15,197.51,441.15,441.15-197.51,441.15-441.15,441.15Z"/><g><path class="d" d="M222.37,436.23h-42.5v-64.14h118.23v291.33h-75.73v-227.19Z"/><path class="d" d="M437.58,509.64c-30.4-12.62-45.59-34-45.59-64.14,0-12.36,2.44-23.5,7.34-33.42,4.89-9.91,11.65-18.48,20.28-25.69,8.63-7.21,19.06-12.75,31.3-16.62,12.23-3.86,25.69-5.8,40.38-5.8s28.14,1.93,40.38,5.8c12.23,3.87,22.66,9.41,31.3,16.62,8.63,7.21,15.39,15.78,20.29,25.69,4.89,9.92,7.34,21.06,7.34,33.42,0,7.73-.77,14.62-2.32,20.67-1.55,6.06-4.19,11.59-7.92,16.62-3.74,5.02-8.63,9.72-14.68,14.1-6.06,4.38-13.59,8.63-22.6,12.75,39.66,15.45,59.5,40.44,59.5,74.96,0,12.36-2.77,23.83-8.31,34.39-5.54,10.56-13.27,19.7-23.18,27.43-9.92,7.73-21.64,13.78-35.16,18.16-13.52,4.38-28.4,6.57-44.63,6.57s-30.33-2.13-43.85-6.38c-13.52-4.25-25.31-10.24-35.35-17.97-10.05-7.73-17.91-16.87-23.57-27.43-5.67-10.56-8.5-22.15-8.5-34.77,0-35.29,19.19-60.27,57.57-74.96Zm18.93,65.68c0,4.9,.9,9.53,2.7,13.91,1.8,4.38,4.25,8.18,7.34,11.4,3.09,3.22,6.76,5.8,11.01,7.73,4.25,1.93,8.82,2.9,13.72,2.9,4.64,0,9.08-.97,13.33-2.9,4.25-1.93,7.98-4.5,11.2-7.73,3.22-3.22,5.73-6.95,7.53-11.2,1.8-4.25,2.7-8.82,2.7-13.72,0-9.79-3.42-18.09-10.24-24.92-6.83-6.82-15.01-10.24-24.53-10.24s-18.03,3.42-24.73,10.24c-6.7,6.83-10.05,15.01-10.05,24.53Zm2.7-129.05c0,9.02,3.09,16.68,9.27,22.99,6.18,6.31,13.78,9.47,22.8,9.47,4.64,0,8.89-.9,12.75-2.7,3.86-1.8,7.21-4.18,10.05-7.15,2.83-2.96,5.08-6.38,6.76-10.24,1.67-3.86,2.51-7.85,2.51-11.98,0-8.75-3.09-16.29-9.27-22.6-6.18-6.31-13.78-9.47-22.8-9.47s-16.61,3.09-22.8,9.27c-6.18,6.18-9.27,13.66-9.27,22.41Z"/><path class="d" d="M650.47,493.03h78.82v-78.82h49.46v78.82h78.43v49.46h-78.43v78.82h-49.46v-78.82h-78.82v-49.46Z"/></g></g></g></g></svg>