<?xml version="1.0" encoding="utf-8"?>
<!-- Generator: Adobe Illustrator 24.1.2, SVG Export Plug-In . SVG Version: 6.00 Build 0)  -->
<svg version="1.1" id="Layer_1" xmlns="http://www.w3.org/2000/svg" xmlns:xlink="http://www.w3.org/1999/xlink" x="0px" y="0px"
	 viewBox="0 0 116 128" style="enable-background:new 0 0 116 128;" xml:space="preserve">
<style type="text/css">
	.st0{opacity:0.99;fill:#FC475D;}
</style>
<g>
	<path class="st0" d="M28.3,50.5c0.4,0.1,0.8,0.1,1.2,0.1c1.3-0.1,2.5-1.1,2.9-2.4c0.1-0.2,0.1-0.4,0.2-0.6c0.6-1.7-0.4-3.6-2.1-4.2
		c-1.7-0.6-3.6,0.4-4.2,2.1c-0.1,0.3-0.2,0.6-0.3,1C25.5,48.1,26.6,50,28.3,50.5z"/>
	<path class="st0" d="M50.2,32.7c0.3,0,0.6-0.1,0.9-0.2c0.2-0.1,0.5-0.2,0.7-0.3c1.7-0.7,2.6-2.6,1.9-4.3c-0.7-1.7-2.6-2.6-4.3-1.9
		c-0.3,0.1-0.5,0.2-0.8,0.3c-1.7,0.7-2.6,2.6-1.9,4.3C47.4,32,48.8,32.9,50.2,32.7z"/>
	<path class="st0" d="M29.9,64.6c1.8-0.2,3.1-1.9,2.9-3.7l-0.1-0.8c-0.2-1.8-1.9-3.1-3.7-2.9c-1.8,0.2-3.1,1.9-2.9,3.7l0.1,0.8
		C26.4,63.5,28,64.8,29.9,64.6C29.8,64.6,29.8,64.6,29.9,64.6z"/>
	<path class="st0" d="M63.8,28.6c0.2,0,0.3,0,0.5-0.1l0.8-0.2c1.8-0.4,2.9-2.2,2.5-4c-0.4-1.8-2.2-2.9-4-2.5L62.7,22
		c-1.8,0.4-2.9,2.2-2.5,4C60.6,27.7,62.1,28.8,63.8,28.6z"/>
	<path class="st0" d="M77.8,26.1C77.8,26.1,77.8,26.1,77.8,26.1c0.6-0.1,0.8-0.1,0.8-0.1c1.8-0.2,3.2-1.8,3-3.6s-1.8-3.2-3.6-3
		c0,0-0.3,0-0.9,0.1c-1.8,0.2-3.1,1.9-2.9,3.7C74.4,25,76,26.3,77.8,26.1z"/>
	<path class="st0" d="M46.1,78.3c-0.3-0.1-0.5-0.1-0.8-0.2c-1.8-0.5-3.6,0.6-4.1,2.3c-0.5,1.8,0.6,3.6,2.3,4.1
		c0.3,0.1,0.6,0.2,0.9,0.2c0.4,0.1,0.8,0.1,1.1,0.1c1.4-0.1,2.6-1.1,2.9-2.5C48.9,80.6,47.9,78.8,46.1,78.3z"/>
	<path class="st0" d="M101.3,57.9l12.6-1.7c-1.1-5.6-2.4-13.4-3.1-18.4l-3.3-30.3L87.5,0.3l0,0h-1.9H84c-11.2,0-22.1,1.1-32.2,3.4
		c-10.6,2.4-20.2,6.4-28.4,12c-7.4,5-13.1,10.9-17,17.6c-3.6,6.2-5.6,13.1-6,20.7c0-0.1,0-0.2,0-0.2s-5.4,46.2,48.5,66.5
		c0.8,0.3,1.6,0.6,2.3,0.9c0.1,0,0.1,0,0.2,0.1c0.9,0.3,1.7,0.6,2.5,0.9c0.9,0.3,2,0.7,3.3,1c1.7,0.5,3.4,1,5.2,1.4
		c0.9,0.2,1.8,0.4,2.7,0.6c0.3,0.1,0.6,0.1,0.8,0.2c0.1,0,0.1,0,0.2,0c1,0.2,1.8,0.3,2.3,0.4c8.3,1.4,17.4,2.2,27.2,2.2h2.6h1.8h8.8
		l0-0.9l5.5-63.2L101.3,57.9z M92.4,76.2c-0.7,3.6-1.3,7.3-1.8,10.8c-0.8,5-1.5,10.4-2.2,16.3c-0.5,0-1.1,0-1.8,0
		c-0.7,0-1.5,0-2.6,0c-11.6,0-21.9-1-31-3.1c-9.1-2.1-17.1-5.5-24.1-10.3c-6-4.2-10.6-9-13.8-14.4c-1.3-2.2-2.3-4.5-3.1-7v0
		c0,0,0,0,0,0c-0.3-0.8-0.5-1.6-0.7-2.5c-0.1-0.3-0.1-0.5-0.2-0.8c-0.1-0.5-0.2-1-0.3-1.5c-0.1-0.4-0.1-0.9-0.2-1.3
		c0-0.3-0.1-0.5-0.1-0.8c-0.1-0.7-0.1-1.3-0.2-2c0-0.2,0-0.4,0-0.5c0-0.8-0.1-1.5-0.1-2.3c0,0,0,0,0,0v0c0-2.6,0.2-5.1,0.7-7.5
		c0.7-4,2.1-7.7,4.1-11.1c3.2-5.4,7.8-10.2,14-14.4c7.2-4.9,15.5-8.4,25-10.5c9.4-2.1,19.4-3.2,30-3.2c0.6,0,1.1,0,1.5,0
		c0.4,0,1,0,1.9,0c0.1,0.4,0.1,0.8,0.2,1.3c0,0.2,0,0.3,0.1,0.5c0,0.2,0.1,0.5,0.1,0.7c0,0.3,0.1,0.6,0.1,0.9c0,0.1,0,0.2,0,0.3
		c0,0.4,0.1,0.7,0.1,1.1c0.3,2.6,0.7,5.7,1.2,9.1c0.7,5.6,1.7,11.5,2.9,17.6c-0.6,0-1.3,0-2,0c-0.7,0-1.5,0-2.1,0
		c-1.5,0-4.5,0.1-9.1,0.4c-4.6,0.3-8.7,0.8-12.2,1.6c-5.3,1.1-9.5,2.7-12.8,4.8c-3.2,2-4.9,4.9-4.9,8.5c0,3.4,1.7,6.2,5,8.3
		c3.3,2.1,7.5,3.7,12.7,4.9c1.5,0.3,3.1,0.6,4.9,0.9c0.5,0.1,1.1,0.1,1.7,0.2c0,0,0,0,0,0c0.5,0.1,1.1,0.1,1.7,0.2c0,0,0.1,0,0.1,0
		c0.5,0.1,1.1,0.1,1.6,0.1c0.1,0,0.2,0,0.3,0c0.6,0,1.3,0.1,1.9,0.1c4.9,0.3,7.9,0.5,9.1,0.5c0.9,0,1.8,0,2.8,0c0.9,0,1.7,0,2.4,0
		C92.9,73.5,92.7,74.9,92.4,76.2z M91.8,56.5c-0.4,0-0.8,0.1-1.3,0.1c-0.6,0-1.1,0.1-1.7,0.1c0.6,0,1.1-0.1,1.7-0.1
		C90.9,56.6,91.4,56.5,91.8,56.5z"/>
	<path class="st0" d="M73.2,83.2C73.2,83.2,73.2,83.2,73.2,83.2l-0.9,0.1c-1.8,0.2-3.1,1.9-2.9,3.7c0.2,1.8,1.8,3.1,3.6,2.9
		c0,0,0.1,0,0.1,0l0.8-0.1c1.8-0.2,3.1-1.9,2.9-3.7C76.6,84.4,75,83.1,73.2,83.2z"/>
	<path class="st0" d="M35.7,72.3c-0.9-1.6-3-2.1-4.6-1.1c-1.6,0.9-2.1,3-1.1,4.6c0.2,0.3,0.4,0.6,0.6,0.9c0.7,1,1.9,1.5,3.1,1.4
		c0.5-0.1,1.1-0.2,1.6-0.6c1.5-1,1.9-3.1,0.9-4.6C35.9,72.7,35.8,72.5,35.7,72.3z"/>
	<path class="st0" d="M59.7,80.8l-0.8-0.1c-1.8-0.3-3.5,1-3.8,2.8c-0.3,1.8,1,3.5,2.8,3.8l0.8,0.1c0.3,0,0.5,0,0.8,0
		c1.5-0.1,2.8-1.3,3-2.8C62.7,82.7,61.5,81.1,59.7,80.8z"/>
	<path class="st0" d="M40.8,33.7c-1.1-1.5-3.2-1.8-4.6-0.7c-0.2,0.2-0.5,0.4-0.7,0.5c-1.5,1.1-1.7,3.2-0.6,4.7
		c0.7,0.9,1.9,1.4,3,1.3c0.6-0.1,1.2-0.3,1.7-0.7c0.2-0.2,0.4-0.3,0.6-0.4C41.6,37.2,41.9,35.1,40.8,33.7z"/>
</g>
</svg>
