<svg width="111" height="20" viewBox="0 0 111 20" fill="none" xmlns="http://www.w3.org/2000/svg">
<path d="M0 10.0153C0.152444 9.94866 0.248134 9.90448 0.345804 9.86491C1.3225 9.47053 2.30449 9.08802 3.27459 8.67715C3.72862 8.48524 4.16748 8.25309 4.59907 8.0137C5.67476 7.41883 6.52014 6.58126 7.08306 5.49045C7.48958 4.70169 7.84924 3.88721 8.20164 3.07207C8.49333 2.39806 8.74411 1.7069 9.03778 0.96167C9.10509 1.12193 9.15129 1.22811 9.19484 1.33626C9.59014 2.31232 9.97884 3.29168 10.3827 4.26444C10.5213 4.59815 10.6922 4.91932 10.8559 5.24248C11.5224 6.56016 12.5229 7.54083 13.8375 8.21484C14.8953 8.75695 16.0007 9.18299 17.1055 9.6143C17.4103 9.73367 17.7133 9.85568 18.0769 10.0001C17.9469 10.0634 17.8683 10.1069 17.7858 10.1406C16.819 10.531 15.8483 10.9115 14.8861 11.3138C14.4717 11.4873 14.0711 11.6963 13.6725 11.9047C12.447 12.5458 11.5343 13.4948 10.8896 14.7162C10.3299 15.7773 9.90163 16.8932 9.46278 18.0057C9.35785 18.2709 9.25556 18.5373 9.14931 18.8024C9.12159 18.8704 9.08266 18.9343 9.0292 19.0385C8.80944 18.4799 8.61608 17.9556 8.39831 17.4425C8.03402 16.5845 7.67436 15.7232 7.27576 14.881C6.61781 13.4921 5.57247 12.4778 4.20113 11.7827C3.03305 11.1911 1.80822 10.7374 0.593279 10.2573C0.413777 10.1861 0.235596 10.1115 0 10.0153Z" fill="#BBB9C7"/>
<path fill-rule="evenodd" clip-rule="evenodd" d="M9 1.05786C8.92043 1.26099 8.84381 1.46017 8.76842 1.65616C8.58079 2.14396 8.40075 2.61202 8.20164 3.07209C7.84924 3.88723 7.48958 4.70171 7.08306 5.49047C6.52014 6.58129 5.67476 7.41885 4.59907 8.01372C4.16748 8.25312 3.72862 8.48526 3.27459 8.67718C2.59256 8.96604 1.90466 9.24088 1.21685 9.51568C0.926335 9.63175 0.635837 9.74782 0.345804 9.86493C0.280393 9.89143 0.215869 9.92001 0.134591 9.956C0.0945075 9.97375 0.0503493 9.9933 0 10.0153C0.0765159 10.0466 0.146976 10.0755 0.213392 10.1028C0.351473 10.1596 0.472075 10.2092 0.593279 10.2573C0.786422 10.3336 0.979816 10.4093 1.17319 10.485C2.19621 10.8852 3.21874 11.2852 4.20113 11.7827C5.57247 12.4778 6.61781 13.4922 7.27576 14.8811C7.62916 15.6277 7.95195 16.3895 8.27449 17.1506C8.31575 17.2479 8.357 17.3453 8.3983 17.4426C8.5477 17.7945 8.6856 18.1518 8.82842 18.5218C8.88452 18.6671 8.94139 18.8144 9 18.9641V1.05786Z" fill="#DE394D"/>
<path fill-rule="evenodd" clip-rule="evenodd" d="M9 1.05786C9.07957 1.26099 9.15619 1.46017 9.23158 1.65616C9.41921 2.14396 9.59925 2.61202 9.79836 3.07209C10.1508 3.88723 10.5104 4.70171 10.9169 5.49047C11.4799 6.58129 12.3252 7.41885 13.4009 8.01372C13.8325 8.25312 14.2714 8.48526 14.7254 8.67718C15.4074 8.96604 16.0953 9.24088 16.7831 9.51568C17.0737 9.63175 17.3642 9.74782 17.6542 9.86493C17.7196 9.89143 17.7841 9.92001 17.8654 9.956C17.9055 9.97375 17.9497 9.9933 18 10.0153C17.9235 10.0466 17.853 10.0755 17.7866 10.1028C17.6485 10.1596 17.5279 10.2092 17.4067 10.2573C17.2136 10.3336 17.0202 10.4093 16.8268 10.485C15.8038 10.8852 14.7813 11.2852 13.7989 11.7827C12.4275 12.4778 11.3822 13.4922 10.7242 14.8811C10.3708 15.6277 10.048 16.3895 9.72551 17.1506C9.68425 17.2479 9.643 17.3453 9.6017 17.4426C9.4523 17.7945 9.3144 18.1518 9.17158 18.5218C9.11548 18.6671 9.05861 18.8144 9 18.9641V1.05786Z" fill="#DE394D"/>
<path d="M22.9814 10.0153C23.1339 9.94866 23.2296 9.90448 23.3272 9.86491C24.3039 9.47053 25.2859 9.08802 26.256 8.67715C26.7101 8.48524 27.1489 8.25309 27.5805 8.0137C28.6562 7.41883 29.5016 6.58126 30.0645 5.49045C30.471 4.70169 30.8307 3.88721 31.1831 3.07207C31.4748 2.39806 31.7256 1.7069 32.0192 0.96167C32.0865 1.12193 32.1327 1.22811 32.1763 1.33626C32.5716 2.31232 32.9603 3.29168 33.3642 4.26444C33.5028 4.59815 33.6737 4.91932 33.8373 5.24248C34.5039 6.56016 35.5043 7.54083 36.8189 8.21484C37.8768 8.75695 38.9822 9.18299 40.0869 9.6143C40.3918 9.73367 40.6947 9.85568 41.0583 10.0001C40.9283 10.0634 40.8498 10.1069 40.7673 10.1406C39.8005 10.531 38.8297 10.9115 37.8675 11.3138C37.4531 11.4873 37.0525 11.6963 36.6539 11.9047C35.4284 12.5458 34.5158 13.4948 33.871 14.7162C33.3114 15.7773 32.8831 16.8932 32.4442 18.0057C32.3393 18.2709 32.237 18.5373 32.1308 18.8024C32.103 18.8704 32.0641 18.9343 32.0106 19.0385C31.7909 18.4799 31.5975 17.9556 31.3798 17.4425C31.0155 16.5845 30.6558 15.7232 30.2572 14.881C29.5993 13.4921 28.5539 12.4778 27.1826 11.7827C26.0145 11.1911 24.7897 10.7374 23.5747 10.2573C23.3952 10.1861 23.217 10.1115 22.9814 10.0153Z" fill="#BBB9C7"/>
<path d="M45.9629 10.0153C46.1153 9.94866 46.211 9.90448 46.3087 9.86491C47.2854 9.47053 48.2674 9.08802 49.2375 8.67715C49.6915 8.48524 50.1304 8.25309 50.562 8.0137C51.6377 7.41883 52.483 6.58126 53.046 5.49045C53.4525 4.70169 53.8121 3.88721 54.1645 3.07207C54.4562 2.39806 54.707 1.7069 55.0007 0.96167C55.068 1.12193 55.1142 1.22811 55.1577 1.33626C55.553 2.31232 55.9417 3.29168 56.3456 4.26444C56.4842 4.59815 56.6551 4.91932 56.8188 5.24248C57.4853 6.56016 58.4858 7.54083 59.8004 8.21484C60.8582 8.75695 61.9636 9.18299 63.0683 9.6143C63.3732 9.73367 63.6761 9.85568 64.0398 10.0001C63.9098 10.0634 63.8312 10.1069 63.7487 10.1406C62.7819 10.531 61.8112 10.9115 60.849 11.3138C60.4346 11.4873 60.034 11.6963 59.6354 11.9047C58.4099 12.5458 57.4972 13.4948 56.8524 14.7162C56.2928 15.7773 55.8645 16.8932 55.4257 18.0057C55.3207 18.2709 55.2184 18.5373 55.1122 18.8024C55.0845 18.8704 55.0455 18.9343 54.9921 19.0385C54.7723 18.4799 54.579 17.9556 54.3612 17.4425C53.9969 16.5845 53.6372 15.7232 53.2386 14.881C52.5807 13.4921 51.5354 12.4778 50.164 11.7827C48.9959 11.1911 47.7711 10.7374 46.5562 10.2573C46.3767 10.1861 46.1985 10.1115 45.9629 10.0153Z" fill="#BBB9C7"/>
<path fill-rule="evenodd" clip-rule="evenodd" d="M32 1.05786C31.9204 1.26099 31.8438 1.46017 31.7684 1.65616C31.5808 2.14396 31.4008 2.61202 31.2016 3.07209C30.8492 3.88723 30.4896 4.70171 30.0831 5.49047C29.5201 6.58129 28.6748 7.41885 27.5991 8.01372C27.1675 8.25312 26.7286 8.48526 26.2746 8.67718C25.5926 8.96604 24.9047 9.24088 24.2169 9.51568C23.9263 9.63175 23.6358 9.74782 23.3458 9.86493C23.2804 9.89143 23.2159 9.92001 23.1346 9.956C23.0945 9.97375 23.0503 9.9933 23 10.0153C23.0765 10.0466 23.147 10.0755 23.2134 10.1028C23.3515 10.1596 23.4721 10.2092 23.5933 10.2573C23.7864 10.3336 23.9798 10.4093 24.1732 10.485C25.1962 10.8852 26.2187 11.2852 27.2011 11.7827C28.5725 12.4778 29.6178 13.4922 30.2758 14.8811C30.6292 15.6277 30.952 16.3895 31.2745 17.1506C31.3158 17.2479 31.357 17.3453 31.3983 17.4426C31.5477 17.7945 31.6856 18.1518 31.8284 18.5218C31.8845 18.6671 31.9414 18.8144 32 18.9641V1.05786Z" fill="#DE394D"/>
<path fill-rule="evenodd" clip-rule="evenodd" d="M55 1.05786C54.9204 1.26099 54.8438 1.46017 54.7684 1.65616C54.5808 2.14396 54.4008 2.61202 54.2016 3.07209C53.8492 3.88723 53.4896 4.70171 53.0831 5.49047C52.5201 6.58129 51.6748 7.41885 50.5991 8.01372C50.1675 8.25312 49.7286 8.48526 49.2746 8.67718C48.5926 8.96604 47.9047 9.24088 47.2169 9.51568C46.9263 9.63175 46.6358 9.74782 46.3458 9.86493C46.2804 9.89143 46.2159 9.92001 46.1346 9.956C46.0945 9.97375 46.0503 9.9933 46 10.0153C46.0765 10.0466 46.147 10.0755 46.2134 10.1028C46.3515 10.1596 46.4721 10.2092 46.5933 10.2573C46.7864 10.3336 46.9798 10.4093 47.1732 10.485C48.1962 10.8852 49.2187 11.2852 50.2011 11.7827C51.5725 12.4778 52.6178 13.4922 53.2758 14.8811C53.6292 15.6277 53.952 16.3895 54.2745 17.1506C54.3158 17.2479 54.357 17.3453 54.3983 17.4426C54.5477 17.7945 54.6856 18.1518 54.8284 18.5218C54.8845 18.6671 54.9414 18.8144 55 18.9641V1.05786Z" fill="#DE394D"/>
<path fill-rule="evenodd" clip-rule="evenodd" d="M55 1.05786C55.0796 1.26099 55.1562 1.46017 55.2316 1.65616C55.4192 2.14396 55.5992 2.61202 55.7984 3.07209C56.1508 3.88723 56.5104 4.70171 56.9169 5.49047C57.4799 6.58129 58.3252 7.41885 59.4009 8.01372C59.8325 8.25312 60.2714 8.48526 60.7254 8.67718C61.4074 8.96604 62.0953 9.24088 62.7831 9.51568C63.0737 9.63175 63.3642 9.74782 63.6542 9.86493C63.7196 9.89143 63.7841 9.92001 63.8654 9.956C63.9055 9.97375 63.9497 9.9933 64 10.0153C63.9235 10.0466 63.853 10.0755 63.7866 10.1028C63.6485 10.1596 63.5279 10.2092 63.4067 10.2573C63.2136 10.3336 63.0202 10.4093 62.8268 10.485C61.8038 10.8852 60.7813 11.2852 59.7989 11.7827C58.4275 12.4778 57.3822 13.4922 56.7242 14.8811C56.3708 15.6277 56.048 16.3895 55.7255 17.1506C55.6842 17.2479 55.643 17.3453 55.6017 17.4426C55.4523 17.7945 55.3144 18.1518 55.1716 18.5218C55.1155 18.6671 55.0586 18.8144 55 18.9641V1.05786Z" fill="#DE394D"/>
<path fill-rule="evenodd" clip-rule="evenodd" d="M32 18.9641C32.0796 18.761 32.1562 18.5618 32.2316 18.3658C32.4192 17.878 32.5992 17.41 32.7984 16.9499C33.1508 16.1347 33.5104 15.3203 33.9169 14.5315C34.4799 13.4407 35.3252 12.6031 36.4009 12.0083C36.8325 11.7689 37.2714 11.5367 37.7254 11.3448C38.4074 11.0559 39.0953 10.7811 39.7831 10.5063C40.0737 10.3902 40.3642 10.2742 40.6542 10.157C40.7196 10.1305 40.7841 10.102 40.8654 10.066C40.9055 10.0482 40.9497 10.0287 41 10.0067C40.9235 9.97535 40.853 9.94645 40.7866 9.91915C40.6485 9.86235 40.5279 9.81275 40.4067 9.76465C40.2136 9.68835 40.0202 9.61265 39.8268 9.53695C38.8038 9.13675 37.7813 8.73675 36.7989 8.23925C35.4275 7.54415 34.3822 6.52975 33.7242 5.14085C33.3708 4.39425 33.048 3.63245 32.7255 2.87135C32.6842 2.77405 32.643 2.67665 32.6017 2.57935C32.4523 2.22745 32.3144 1.87015 32.1716 1.50015C32.1155 1.35485 32.0586 1.20755 32 1.05785V18.9641Z" fill="#DE394D"/>
<path d="M68.9434 10.0153C69.0958 9.94866 69.1915 9.90448 69.2892 9.86491C70.2659 9.47053 71.2478 9.08802 72.2179 8.67715C72.672 8.48524 73.1108 8.25309 73.5424 8.0137C74.6181 7.41883 75.4635 6.58126 76.0264 5.49045C76.4329 4.70169 76.7926 3.88721 77.145 3.07207C77.4367 2.39806 77.6875 1.7069 77.9811 0.96167C78.0485 1.12193 78.0946 1.22811 78.1382 1.33626C78.5335 2.31232 78.9222 3.29168 79.3261 4.26444C79.4647 4.59815 79.6356 4.91932 79.7993 5.24248C80.4658 6.56016 81.4662 7.54083 82.7808 8.21484C83.8387 8.75695 84.9441 9.18299 86.0488 9.6143C86.3537 9.73367 86.6566 9.85568 87.0202 10.0001C86.8902 10.0634 86.8117 10.1069 86.7292 10.1406C85.7624 10.531 84.7916 10.9115 83.8295 11.3138C83.415 11.4873 83.0144 11.6963 82.6158 11.9047C81.3904 12.5458 80.4777 13.4948 79.8329 14.7162C79.2733 15.7773 78.845 16.8932 78.4061 18.0057C78.3012 18.2709 78.1989 18.5373 78.0927 18.8024C78.065 18.8704 78.026 18.9343 77.9726 19.0385C77.7528 18.4799 77.5594 17.9556 77.3417 17.4425C76.9774 16.5845 76.6177 15.7232 76.2191 14.881C75.5612 13.4921 74.5158 12.4778 73.1445 11.7827C71.9764 11.1911 70.7516 10.7374 69.5366 10.2573C69.3571 10.1861 69.179 10.1115 68.9434 10.0153Z" fill="#BBB9C7"/>
<path d="M91.9248 10.0153C92.0772 9.94866 92.1729 9.90448 92.2706 9.86491C93.2473 9.47053 94.2293 9.08802 95.1994 8.67715C95.6534 8.48524 96.0923 8.25309 96.5239 8.0137C97.5996 7.41883 98.4449 6.58126 99.0079 5.49045C99.4144 4.70169 99.774 3.88721 100.126 3.07207C100.418 2.39806 100.669 1.7069 100.963 0.96167C101.03 1.12193 101.076 1.22811 101.12 1.33626C101.515 2.31232 101.904 3.29168 102.308 4.26444C102.446 4.59815 102.617 4.91932 102.781 5.24248C103.447 6.56016 104.448 7.54083 105.762 8.21484C106.82 8.75695 107.926 9.18299 109.03 9.6143C109.335 9.73367 109.638 9.85568 110.002 10.0001C109.872 10.0634 109.793 10.1069 109.711 10.1406C108.744 10.531 107.773 10.9115 106.811 11.3138C106.396 11.4873 105.996 11.6963 105.597 11.9047C104.372 12.5458 103.459 13.4948 102.814 14.7162C102.255 15.7773 101.826 16.8932 101.388 18.0057C101.283 18.2709 101.18 18.5373 101.074 18.8024C101.046 18.8704 101.007 18.9343 100.954 19.0385C100.734 18.4799 100.541 17.9556 100.323 17.4425C99.9588 16.5845 99.5992 15.7232 99.2006 14.881C98.5426 13.4921 97.4973 12.4778 96.1259 11.7827C94.9579 11.1911 93.733 10.7374 92.5181 10.2573C92.3386 10.1861 92.1604 10.1115 91.9248 10.0153Z" fill="#BBB9C7"/>
<path fill-rule="evenodd" clip-rule="evenodd" d="M78 1.05786C77.9204 1.26099 77.8438 1.46017 77.7684 1.65616C77.5808 2.14396 77.4008 2.61202 77.2016 3.07209C76.8492 3.88723 76.4896 4.70171 76.0831 5.49047C75.5201 6.58129 74.6748 7.41885 73.5991 8.01372C73.1675 8.25312 72.7286 8.48526 72.2746 8.67718C71.5926 8.96604 70.9047 9.24088 70.2169 9.51568C69.9263 9.63175 69.6358 9.74782 69.3458 9.86493C69.2804 9.89143 69.2159 9.92001 69.1346 9.956C69.0945 9.97375 69.0503 9.9933 69 10.0153C69.0765 10.0466 69.147 10.0755 69.2134 10.1028C69.3515 10.1596 69.4721 10.2092 69.5933 10.2573C69.7864 10.3336 69.9798 10.4093 70.1732 10.485C71.1962 10.8852 72.2187 11.2852 73.2011 11.7827C74.5725 12.4778 75.6178 13.4922 76.2758 14.8811C76.6292 15.6277 76.952 16.3895 77.2745 17.1506C77.3158 17.2479 77.357 17.3453 77.3983 17.4426C77.5477 17.7945 77.6856 18.1518 77.8284 18.5218C77.8845 18.6671 77.9414 18.8144 78 18.9641V1.05786Z" fill="#DE394D"/>
</svg>
